HIERARCHY
ROOT hip
{
	OFFSET 0.000000 0.000000 0.000000
	CHANNELS 6 Xposition Yposition Zposition Xrotation Zrotation Yrotation 
	JOINT abdomen
	{
		OFFSET 0.000000 3.422050 0.000000
		CHANNELS 3 Xrotation Zrotation Yrotation 
		JOINT chest
		{
			OFFSET 0.000000 8.486693 -0.684411
			CHANNELS 3 Xrotation Zrotation Yrotation 
			JOINT neck
			{
				OFFSET 0.000000 10.266162 -0.273764
				CHANNELS 3 Xrotation Zrotation Yrotation 
				JOINT head
				{
					OFFSET 0.000000 3.148285 0.000000
					CHANNELS 3 Xrotation Zrotation Yrotation 
					End Site
					{
						OFFSET 0.000000 3.148289 0.000000
					}
				}
			}
			JOINT lCollar
			{
				OFFSET 3.422053 6.707223 -0.821293
				CHANNELS 3 Yrotation Zrotation Xrotation 
				JOINT lShldr
				{
					OFFSET 3.285171 0.000000 0.000000
					CHANNELS 3 Zrotation Yrotation Xrotation 
					JOINT lForeArm
					{
						OFFSET 10.129278 0.000000 0.000000
						CHANNELS 3 Yrotation Zrotation Xrotation 
						JOINT lHand
						{
							OFFSET 8.486692 0.000000 0.000000
							CHANNELS 3 Zrotation Yrotation Xrotation 
							End Site
							{
								OFFSET 4.106464 0.000000 0.000000
							}
						}
					}
				}
			}
			JOINT rCollar
			{
				OFFSET -3.558935 6.707223 -0.821293
				CHANNELS 3 Yrotation Zrotation Xrotation 
				JOINT rShldr
				{
					OFFSET -3.148289 0.000000 0.000000
					CHANNELS 3 Zrotation Yrotation Xrotation 
					JOINT rForeArm
					{
						OFFSET -10.266159 0.000000 0.000000
						CHANNELS 3 Yrotation Zrotation Xrotation 
						JOINT rHand
						{
							OFFSET -8.349810 0.000000 0.000000
							CHANNELS 3 Zrotation Yrotation Xrotation 
							End Site
							{
								OFFSET -4.106464 0.000000 0.000000
							}
						}
					}
				}
			}
		}
	}
	JOINT lThigh
	{
		OFFSET 5.338403 -1.642589 1.368821
		CHANNELS 3 Xrotation Zrotation Yrotation 
		JOINT lShin
		{
			OFFSET -2.053232 -20.121670 0.000000
			CHANNELS 3 Xrotation Zrotation Yrotation 
			JOINT lFoot
			{
				OFFSET 0.000000 -19.300380 -1.231939
				CHANNELS 3 Xrotation Yrotation Zrotation 
				End Site
				{
					OFFSET 0.000000 -2.463878 4.653993
				}
			}
		}
	}
	JOINT rThigh
	{
		OFFSET -5.338403 -1.642589 1.368821
		CHANNELS 3 Xrotation Zrotation Yrotation 
		JOINT rShin
		{
			OFFSET 2.053232 -20.121670 0.000000
			CHANNELS 3 Xrotation Zrotation Yrotation 
			JOINT rFoot
			{
				OFFSET 0.000000 -19.300380 -1.231939
				CHANNELS 3 Xrotation Yrotation Zrotation 
				End Site
				{
					OFFSET 0.000000 -2.463878 4.653993
				}
			}
		}
	}
}
MOTION
Frames: 8
Frame Time: 0.033264
0.000000 43.528500 0.000000 0.000000 0.000000 0.000000 0.000000 0.000000 0.000000 0.000000 0.000000 0.000000 0.000000 0.000000 0.000000 0.000000 0.000000 0.000000 0.000000 0.000000 0.000000 0.000000 0.000000 0.000000 0.000000 0.000000 0.000000 0.000000 0.000000 0.000000 0.000000 0.000000 0.000000 0.000000 0.000000 0.000000 0.000000 0.000000 0.000000 0.000000 0.000000 0.000000 0.000000 0.000000 0.000000 0.000000 0.000000 0.000000 0.000000 0.000000 0.000000 0.000000 0.000000 0.000000 0.000000 0.000000 0.000000 0.000000 0.000000 0.000000 
0.820027 30.363108 -0.309380 41.998802 0.000000 0.000000 -10.105446 0.608823 -0.241655 0.216451 0.566973 -1.137283 -0.082183 0.000000 0.000000 0.389926 -0.176600 -0.000603 -44.688660 -35.396904 -10.089680 -35.553818 18.239578 -4.037168 -44.916706 -15.559561 -4.758224 48.204765 -31.913427 -39.155449 42.424686 31.616768 -8.024056 35.285728 -18.234001 -4.100775 43.259876 14.970661 -4.318493 -43.220329 34.586479 -38.982239 -51.248390 53.195667 -23.657669 91.235443 0.652038 -0.381239 69.753929 8.329679 -44.206394 -51.252205 -53.216095 23.641678 91.235497 -0.679318 0.388364 69.751266 -8.350633 44.197781 
0.820027 30.332737 -0.090109 41.002270 0.000000 0.000000 -9.163938 0.608798 -0.241664 -0.504362 0.567010 -1.137355 -0.048416 0.000000 0.000000 0.775355 -0.346702 0.042156 -44.275333 -36.381790 -9.653331 -35.280815 18.187572 -3.972664 -44.236382 -15.323381 -4.556881 48.199448 -32.354015 -39.438179 41.974304 32.591251 -7.554719 34.957634 -18.172499 -4.018559 42.589886 14.734858 -4.128936 -43.194901 35.048862 -39.223164 -49.263016 54.023140 -22.270275 90.576324 0.607156 -0.387780 69.515038 8.682355 -43.453053 -49.266048 -54.044155 22.253763 90.576378 -0.633989 0.394928 69.511810 -8.703029 43.443130 
0.820027 30.302366 0.129163 40.004520 0.000000 0.000000 -8.221404 0.608773 -0.241674 -1.225634 0.567047 -1.137427 -0.014650 0.000000 0.000000 1.161048 -0.517257 0.083812 -43.846638 -37.365421 -9.201774 -35.007927 18.135265 -3.908435 -43.557297 -15.084779 -4.358569 48.196674 -32.794769 -39.722336 41.508671 33.563889 -7.070292 34.629700 -18.110542 -3.936733 41.921059 14.496793 -3.942335 -43.171719 35.511490 -39.465302 -47.200665 54.822197 -20.804014 89.916870 0.562178 -0.393807 69.271027 9.032188 -42.696869 -47.202770 -54.843800 20.786842 89.916908 -0.588564 0.400974 69.267250 -9.052570 42.685635 
0.820027 30.271996 0.348435 39.005718 0.000000 0.000000 -7.277976 0.608749 -0.241683 -1.947307 0.567082 -1.137500 0.019118 0.000000 0.000000 1.546999 -0.688252 0.124357 -43.401764 -38.347431 -8.734214 -34.735161 18.082663 -3.844483 -42.879471 -14.843801 -4.163315 48.196514 -33.235657 -40.007984 41.027107 34.534332 -6.570078 34.301952 -18.048138 -3.855302 41.253399 14.256515 -3.758721 -43.150810 35.974339 -39.708698 -45.059399 55.590309 -19.256929 89.257126 0.517112 -0.399319 69.021919 9.379056 -41.937866 -45.060429 -55.612499 19.238949 89.257156 -0.543051 0.406499 69.017586 -9.399135 41.925308 
0.820027 30.241625 0.567706 38.005989 0.000000 0.000000 -6.333774 0.608725 -0.241694 -2.669324 0.567117 -1.137573 0.052885 0.000000 0.000000 1.933205 -0.859677 0.163788 -42.939911 -39.327522 -8.249820 -34.462528 18.029772 -3.780811 -42.202965 -14.600506 -3.971156 48.198982 -33.676643 -40.295151 40.528893 35.502232 -6.053351 33.974380 -17.985285 -3.774270 40.586952 14.014076 -3.578123 -43.132210 36.437363 -39.953377 -42.837746 56.324848 -17.627535 88.597122 0.471968 -0.404313 68.767776 9.722854 -41.176083 -42.837551 -56.347610 17.608587 88.597145 -0.497459 0.411501 68.762863 -9.742616 41.162197 
0.820027 30.211254 0.786978 37.005501 0.000000 0.000000 -5.388933 0.608701 -0.241704 -3.391627 0.567150 -1.137646 0.086654 0.000000 0.000000 2.319663 -1.031520 0.202099 -42.460159 -40.305321 -7.747694 -34.190010 17.976589 -3.717418 -41.527779 -14.354937 -3.782113 48.204144 -34.117714 -40.583897 40.013229 36.467182 -5.519329 33.646992 -17.921988 -3.693638 39.921753 13.769529 -3.400566 -43.115982 36.900558 -40.199417 -40.534855 57.023151 -15.914957 87.936905 0.426754 -0.408789 68.508591 10.063463 -40.411552 -40.533283 -57.046471 15.894885 87.936913 -0.451797 0.415979 68.503120 -10.082896 40.396343 
0.820027 30.180883 1.006250 36.004398 0.000000 0.000000 -4.443575 0.608677 -0.241715 -4.114163 0.567183 -1.137721 0.120422 0.000000 0.000000 2.706369 -1.203769 0.239284 -41.961559 -41.280453 -7.226892 -33.917637 17.923120 -3.654311 -40.853985 -14.107164 -3.596221 48.212044 -34.558838 -40.874271 39.479336 37.428833 -4.967209 33.319790 -17.858250 -3.613412 39.257835 13.522928 -3.226074 -43.102139 37.363873 -40.446823 -38.150639 57.682526 -14.119075 87.276512 0.381480 -0.412744 68.244415 10.400773 -39.644321 -38.147488 -57.706356 14.097686 87.276520 -0.406075 0.419931 68.238380 -10.419866 39.627781 
